# AST/ASF file generated using VICON BodyLanguage
# -----------------------------------------------
:version 1.10
:name VICON
:units
  mass 1.0
  length 0.45
  angle deg
:documentation
   .ast/.asf automatically generated from VICON data using
   VICON BodyBuilder and BodyLanguage model FoxedUp or BRILLIANT.MOD
:root
   order TX TY TZ RX RY RZ
   axis XYZ
   position 0 0 0  
   orientation 0 0 0 
:bonedata
  begin
     id 1 
     name lhipjoint
     direction 0.578396 -0.714046 0.394458 
     length 2.21935 
     axis 0 0 0  XYZ
  end
  begin
     id 2 
     name lfemur
     direction 0.34202 -0.939693 0  
     length 6.39105  
     axis 0 0 20  XYZ
    dof rx ry rz
    limits (-160.0 20.0)
           (-70.0 70.0)
           (-60.0 70.0)
  end
  begin
     id 3 
     name ltibia
     direction 0.34202 -0.939693 0   
     length 6.99037   
     axis 0 0 20   XYZ
    dof rx
    limits (-10.0 170.0)
  end
  begin
     id 4 
     name lfoot
     direction 0.0582372 -0.160005 0.985397   
     length 2.06111   
     axis -90 7.62852e-016 20   XYZ
    dof rx rz
    limits (-45.0 90.0)
           (-70.0 20.0)
  end
  begin
     id 5 
     name ltoes
     direction 1.53556e-011 -4.21875e-011 1   
     length 1.04074   
     axis -90 7.62852e-016 20   XYZ
    dof rx
    limits (-90.0 20.0)
  end
  begin
     id 6 
     name rhipjoint
     direction -0.558179 -0.726269 0.40121   
     length 2.182  
     axis 0 0 0  XYZ 
  end
  begin
     id 7 
     name rfemur
     direction -0.34202 -0.939693 0   
     length 6.51172   
     axis 0 0 -20   XYZ
    dof rx ry rz
    limits (-160.0 20.0)
           (-70.0 70.0)
           (-70.0 60.0)
  end
  begin
     id 8 
     name rtibia
     direction -0.34202 -0.939693 0   
     length 7.02607   
     axis 0 0 -20   XYZ
    dof rx
    limits (-10.0 170.0)
 end
 begin
     id 9 
     name rfoot
     direction -0.0788856 -0.216737 0.973038   
     length 1.96734  
     axis -90 -7.62852e-016 -20   XYZ
    dof rx rz
    limits (-45.0 90.0)
           (-20.0 70.0)
  end
  begin
     id 10 
     name rtoes
     direction -1.53567e-011 -4.21783e-011 1   
     length 0.990825   
     axis -90 -7.62852e-016 -20   XYZ
    dof rx
    limits (-90.0 20.0)
  end
  begin
     id 11 
     name lowerback
     direction 0.00668177 0.999323 -0.0361741   
     length 1.7655   
     axis 0 0 0   XYZ
    dof rx ry rz
    limits (-20.0 45.0)
           (-30.0 30.0)
           (-30.0 30.0)
  end
  begin
     id 12 
     name upperback
     direction -0.00222086 0.99851 0.0545167   
     length 1.74912   
     axis 0 0 0   XYZ
    dof rx ry rz
    limits (-20.0 45.0)
           (-30.0 30.0)
           (-30.0 30.0)
  end
  begin
     id 13 
     name thorax
     direction -0.00733971 0.997496 0.0703443   
     length 1.75715   
     axis 0 0 0   XYZ
    dof rx ry rz
    limits (-20.0 45.0)
           (-30.0 30.0)
           (-30.0 30.0)
  end
  begin
     id 14 
     name lowerneck
     direction 0.0279797 0.994795 0.0979765   
     length 1.46939   
     axis 0 0 0   XYZ
    dof rx ry rz
    limits (-20.0 45.0)
           (-30.0 30.0)
           (-30.0 30.0)
  end
  begin
     id 15 
     name upperneck
     direction 0.00339187 0.976776 -0.214238   
     length 1.48018   
     axis 0 0 0   XYZ
    dof rx ry rz
    limits (-20.0 45.0)
           (-30.0 30.0)
           (-30.0 30.0)
  end
  begin
     id 16
     name head
     direction -0.00263506 0.996603 -0.0823096  
     length 1.4976  
     axis 0 0 0   XYZ
    dof rx ry rz
    limits (-20.0 45.0)
           (-30.0 30.0)
           (-30.0 30.0)
  end
  begin
     id 17 
     name lclavicle
     direction 0.894044 0.44508 -0.0508781  
     length 3.03024  
     axis 0 0 0   XYZ
    dof ry rz
    limits (-20.0 10.0)
           (0.0 20.0)
  end
  begin
     id 18 
     name lhumerus
     direction 1 -4.48961e-011 -2.39475e-018   
     length 4.4661   
     axis 180 -30 -90   XYZ
    dof rx ry rz
    limits (-60.0 90.0)
           (-90.0 90.0)
           (-90.0 90.0)
  end
  begin
     id 19
     name lradius
     direction 1 -4.48961e-011 9.29328e-028   
     length 3.41414   
     axis 180 -30 -90   XYZ
    dof rx
    limits (-10.0 170.0)
  end
  begin
     id 20
     name lwrist
     direction 1 -4.48985e-011 1.53461e-026   
     length 1.70707   
     axis -1.09697e-014 90 90   XYZ
    dof ry
    limits (-180.0 0.0)
 end
  begin
     id 21 
     name lhand
     direction 1 -4.48966e-011 3.06923e-026   
     length 0.328298   
     axis -1.95843e-014 90 90   XYZ
    dof rx rz
    limits (-90.0 90.0)
           (-45.0 45.0)
  end
  begin
     id 22 
     name lfingers
     direction 1 -4.48893e-011 6.13845e-026   
     length 0.264682   
     axis -3.91686e-014 90 90   XYZ
    dof rx
    limits (0.0 90.0)
  end
  begin
     id 23
     name lthumb
     direction 0.707107 -6.34876e-011 0.707107   
     length 0.380032   
     axis -90 45 2.85299e-015   XYZ
    dof rx rz
    limits (-45.0 45.0)
           (-45.0 45.0)
  end
  begin
     id 24 
     name rclavicle
     direction -0.936955 0.347862 -0.0332887   
     length 3.26927  
     axis 0 0 0   XYZ 
    dof ry rz
    limits (-10.0 20.0)
           (-20.0 0.0)
  end
  begin
     id 25 
     name rhumerus
     direction -1 -4.4896e-011 1.78637e-018  
     length 4.40431   
     axis 180 30 90   XYZ
    dof rx ry rz
    limits (-90.0 60.0)
           (-90.0 90.0)
           (-90.0 90.0)
  end
  begin
     id 26 
     name rradius
     direction -1 -4.48955e-011 9.34036e-027   
     length 3.04688   
     axis 180 30 90   XYZ
    dof rx
    limits (-10.0 170.0)
  end
  begin
     id 27 
     name rwrist
     direction -1 -4.49011e-011 1.53461e-026   
     length 1.52344   
     axis -1.09697e-014 -90 -90   XYZ
    dof ry
    limits (-180.0 0.0)
  end
  begin
     id 28
     name rhand
     direction -1 -4.48834e-011 3.06923e-026   
     length 0.500489   
     axis -1.95843e-014 -90 -90   XYZ
    dof rx rz
    limits (-90.0 90.0)
           (-45.0 45.0)
  end
  begin
     id 29
     name rfingers
     direction -1 -4.48967e-011 6.13845e-026   
     length 0.403507   
     axis -3.91686e-014 -90 -90   XYZ
    dof rx
    limits (0.0 90.0)
  end
  begin
     id 30
     name rthumb
     direction -0.707107 -6.34826e-011 0.707107   
     length 0.579358   
     axis -90 -45 -2.85299e-015   XYZ
    dof rx rz
    limits (-45.0 45.0)
           (-45.0 45.0)
  end
:hierarchy
  begin
    root lhipjoint rhipjoint lowerback
    lhipjoint lfemur
    lfemur ltibia
    ltibia lfoot
    lfoot ltoes
    rhipjoint rfemur
    rfemur rtibia
    rtibia rfoot
    rfoot rtoes
    lowerback upperback
    upperback thorax
    thorax lowerneck lclavicle rclavicle
    lowerneck upperneck
    upperneck head
    lclavicle lhumerus
    lhumerus lradius
    lradius lwrist
    lwrist lhand lthumb
    lhand lfingers
    rclavicle rhumerus
    rhumerus rradius
    rradius rwrist
    rwrist rhand rthumb
    rhand rfingers
  end

#!OML:ASF H:\IndianDance\Patient Classification 1\Patient 1\Session 1\dancer.ASF
:FULLY-SPECIFIED
:DEGREES
1621
root 3.31749 13.6495 -0.838509 -161.555 37.7974 -171.3
lowerback 8.20555 -3.29606 7.68263
upperback -7.68097 -1.07683 10.2372
thorax -13.2464 -0.108353 7.28108
lowerneck -13.8664 -11.4042 -6.6808
upperneck 2.71252 -14.5141 7.05327
head 4.00118 -6.8774 2.0265
rclavicle 1.22103e-013 -1.81292e-013
rhumerus -27.7142 -18.8556 -70.1575
rradius 52.5511
rwrist -29.0279
rhand -56.7846 53.3552
rfingers 7.12502
rthumb -29.0858 25.6062
lclavicle 1.22103e-013 -1.81292e-013
lhumerus -21.7812 -63.9862 58.1745
lradius 114.338
lwrist 27.5875
lhand -55.8399 28.0293
lfingers 7.12502
lthumb -28.1832 55.9306
rfemur 130.251 208.615 -154.098
rtibia 72.4068
rfoot 156.755 -194.465
rtoes -0.819048
lfemur -52.8567 17.1909 -17.7691
ltibia 76.4342
lfoot -30.9844 15.4571
ltoes 8.37187
1622
root 3.31538 13.65 -0.875414 -162.545 36.6119 -171.807
lowerback 8.29133 -2.96094 7.41968
upperback -7.55288 -0.726353 9.95887
thorax -13.1531 0.0483525 7.02626
lowerneck -13.8651 -11.182 -6.35711
upperneck 3.28444 -14.2472 6.24048
head 4.07333 -6.78435 1.75237
rclavicle -4.53726e-014 1.17681e-013
rhumerus -27.1216 -16.9755 -72.7553
rradius 52.7611
rwrist -32.9596
rhand -56.9172 51.7672
rfingers 7.12502
rthumb -29.2124 24.0402
lclavicle -4.53726e-014 1.17681e-013
lhumerus -19.8384 -64.4981 57.3571
lradius 113.817
lwrist 27.7181
lhand -55.8446 28.1681
lfingers 7.12502
lthumb -28.1877 56.0687
rfemur 130.77 209.31 -154.785
rtibia 73.2189
rfoot 157.662 -195.252
rtoes 0.639603
lfemur -51.7813 16.0291 -17.8068
ltibia 75.5682
lfoot -31.154 15.5555
ltoes 8.34682
1623
root 3.31316 13.6527 -0.912125 -163.609 35.4693 -172.332
lowerback 8.45833 -2.59409 7.15051
upperback -7.39624 -0.340382 9.63746
thorax -13.0774 0.215947 6.72309
lowerneck -13.8811 -10.974 -6.03006
upperneck 3.86983 -13.9968 5.46825
head 4.16024 -6.69747 1.48563
rclavicle -1.60767e-014 -1.65389e-013
rhumerus -26.4855 -14.9175 -75.2724
rradius 53.0499
rwrist -36.9448
rhand -57.0383 50.0138
rfingers 7.12502
rthumb -29.3281 22.3069
lclavicle -1.60767e-014 -1.65389e-013
lhumerus -17.7399 -65.0268 56.3867
lradius 113.238
lwrist 27.7839
lhand -55.8529 28.228
lfingers 7.12502
lthumb -28.1956 56.1272
rfemur 131.243 209.945 -155.547
rtibia 74.2021
rfoot 158.803 -196.067
rtoes 2.57559
lfemur -50.6433 15.0281 -17.9201
ltibia 74.9846
lfoot -31.2045 15.5048
ltoes 8.2205
1624
root 3.30988 13.6566 -0.948837 -164.694 34.3952 -172.855
lowerback 8.68121 -2.19377 6.91298
upperback -7.21931 0.0876145 9.27372
thorax -13.0138 0.394796 6.34826
lowerneck -13.911 -10.7712 -5.70034
upperneck 4.45837 -13.7515 4.75017
head 4.25817 -6.6105 1.2321
rclavicle -1.21569e-014 -3.18055e-014
rhumerus -25.7806 -12.6947 -77.6905
rradius 53.3821
rwrist -40.8366
rhand -57.1457 47.1106
rfingers 7.12502
rthumb -29.4306 19.4218
lclavicle -1.21569e-014 -3.18055e-014
lhumerus -15.5388 -65.5508 55.2834
lradius 112.618
lwrist 27.7835
lhand -55.878 28.288
lfingers 7.12502
lthumb -28.2197 56.1833
rfemur 131.606 210.469 -156.355
rtibia 75.3428
rfoot 160.196 -196.889
rtoes 5.05923
lfemur -49.4885 14.1877 -18.0943
ltibia 74.5379
lfoot -31.2356 15.3047
ltoes 7.90484
1625
root 3.30499 13.6629 -0.986413 -165.769 33.4019 -173.367
lowerback 8.92558 -1.76061 6.73177
upperback -7.02033 0.557271 8.87281
thorax -12.9371 0.58342 5.89132
lowerneck -13.9417 -10.565 -5.3721
upperneck 5.01795 -13.5008 4.10385
head 4.35582 -6.51739 1.00036
rclavicle -9.68019e-014 6.67916e-014
rhumerus -24.9975 -10.3121 -79.9793
rradius 53.7756
rwrist -44.5938
rhand -57.2288 42.2456
rfingers 7.12502
rthumb -29.5099 14.5707
lclavicle -9.68019e-014 6.67916e-014
lhumerus -13.243 -66.0487 54.0397
lradius 111.971
lwrist 27.7289
lhand -55.9307 28.3604
lfingers 7.12502
lthumb -28.27 56.2473
rfemur 131.835 210.857 -157.192
rtibia 76.6012
rfoot 161.851 -197.715
rtoes 8.09551
lfemur -48.3547 13.4951 -18.32
ltibia 74.0995
lfoot -31.2588 15.1151
ltoes 7.58331
1626
root 3.29787 13.6718 -1.02519 -166.794 32.5038 -173.857
lowerback 9.16977 -1.29461 6.63758
upperback -6.81118 1.07405 8.43531
thorax -12.8454 0.783052 5.3349
lowerneck -13.9821 -10.3573 -5.0641
upperneck 5.56245 -13.2465 3.54203
head 4.4606 -6.41813 0.795884
rclavicle 4.47266e-014 1.25632e-013
rhumerus -24.1507 -7.77817 -82.1129
rradius 54.2344
rwrist -48.1599
rhand -57.2116 35.9503
rfingers 7.12502
rthumb -29.4935 8.27245
lclavicle 4.47266e-014 1.25632e-013
lhumerus -10.8954 -66.51 52.6773
lradius 111.333
lwrist 27.681
lhand -56.0187 28.5669
lfingers 7.12502
lthumb -28.3541 56.4399
rfemur 131.899 211.083 -158.028
rtibia 77.931
rfoot 163.739 -198.544
rtoes 11.6766
lfemur -47.2767 12.9898 -18.6055
ltibia 73.674
lfoot -31.2256 14.9035
ltoes 7.31715
1627
root 3.28712 13.6822 -1.06557 -167.731 31.7132 -174.34
lowerback 9.37645 -0.794647 6.64655
upperback -6.60905 1.63962 7.95336
thorax -12.7304 0.993737 4.66178
lowerneck -14.02 -10.1467 -4.76511
upperneck 6.07804 -12.9897 3.05889
head 4.56471 -6.31336 0.616514
rclavicle 6.53505e-015 1.1291e-013
rhumerus -23.2441 -5.13358 -84.0596
rradius 54.7494
rwrist -51.4403
rhand -57.0005 28.7993
rfingers 7.12502
rthumb -29.292 1.08617
lclavicle 6.53505e-015 1.1291e-013
lhumerus -8.5271 -66.9399 51.2068
lradius 110.73
lwrist 27.6565
lhand -56.1497 28.9662
lfingers 7.12502
lthumb -28.4792 56.8183
rfemur 131.738 211.141 -158.845
rtibia 79.2909
rfoot 165.775 -199.361
rtoes 15.6997
lfemur -46.3134 12.6745 -18.9803
ltibia 73.2706
lfoot -31.1562 14.5785
ltoes 7.2901
1628
root 3.27791 13.6951 -1.10691 -168.592 31.0821 -174.804
lowerback 9.53828 -0.243018 6.6731
upperback -6.40105 2.26603 7.45005
thorax -12.5702 1.2315 3.94513
lowerneck -14.0452 -9.93799 -4.49378
upperneck 6.56628 -12.736 2.66588
head 4.66865 -6.20548 0.468401
rclavicle -2.09221e-014 -8.26944e-014
rhumerus -22.2826 -2.40596 -85.7903
rradius 55.3256
rwrist -54.4366
rhand -56.6294 21.3544
rfingers 7.12502
rthumb -28.9376 -6.42011
lclavicle -2.09221e-014 -8.26944e-014
lhumerus -6.14524 -67.3384 49.627
lradius 110.186
lwrist 27.689
lhand -56.277 29.4882
lfingers 7.12502
lthumb -28.6009 57.3199
rfemur 131.418 210.965 -159.624
rtibia 80.626
rfoot 167.858 -200.138
rtoes 20.1418
lfemur -45.391 12.6112 -19.391
ltibia 72.8693
lfoot -31.0844 14.2397
ltoes 7.20802
1629
root 3.26957 13.7086 -1.14926 -169.349 30.5997 -175.239
lowerback 9.64113 0.349517 6.7321
upperback -6.19781 2.94428 6.93365
thorax -12.3656 1.49343 3.19093
lowerneck -14.0568 -9.72765 -4.24671
upperneck 7.02744 -12.4818 2.35463
head 4.77084 -6.09284 0.349208
rclavicle -1.42628e-014 -6.67916e-014
rhumerus -21.2597 0.375643 -87.2881
rradius 55.9566
rwrist -57.1257
rhand -56.0692 14.5232
rfingers 7.12502
rthumb -28.4024 -13.3418
lclavicle -1.42628e-014 -6.67916e-014
lhumerus -3.80101 -67.6961 47.9799
lradius 109.717
lwrist 27.7837
lhand -56.3614 29.9618
lfingers 7.12502
lthumb -28.6816 57.7799
rfemur 130.914 210.583 -160.322
rtibia 81.9001
rfoot 169.828 -200.886
rtoes 24.4981
lfemur -44.5351 12.7612 -19.8182
ltibia 72.4716
lfoot -31.023 13.8924
ltoes 7.04242
1630
root 3.26345 13.7231 -1.19205 -170.005 30.2563 -175.648
lowerback 9.71467 0.978698 6.81007
upperback -6.02151 3.67341 6.40083
thorax -12.158 1.78051 2.40659
lowerneck -14.0556 -9.52354 -3.97331
upperneck 7.4869 -12.2419 2.06738
head 4.8724 -5.98489 0.232384
rclavicle -3.03147e-014 -1.30403e-013
rhumerus -20.1957 3.18975 -88.5468
rradius 56.6286
rwrist -59.513
rhand -55.2893 8.74642
rfingers 7.12502
rthumb -27.6568 -19.2405
lclavicle -3.03147e-014 -1.30403e-013
lhumerus -1.53221 -68.0416 46.2855
lradius 109.339
lwrist 27.9378
lhand -56.3997 30.3551
lfingers 7.12502
lthumb -28.7181 58.1669
rfemur 130.248 210.014 -160.916
rtibia 83.0701
rfoot 171.546 -201.468
rtoes 28.3388
lfemur -43.7384 13.0975 -20.2425
ltibia 72.068
lfoot -30.9585 13.5119
ltoes 6.80654
1631
root 3.26097 13.7395 -1.23489 -170.583 30.0203 -176.038
lowerback 9.76826 1.63238 6.87492
upperback -5.86698 4.43525 5.86579
thorax -11.9474 2.08812 1.63015
lowerneck -14.0636 -9.33079 -3.7128
upperneck 7.96063 -12.0182 1.82572
head 4.98546 -5.88143 0.128415
rclavicle -4.12478e-015 -1.00187e-013
rhumerus -19.0605 5.98671 -89.5452
rradius 57.3065
rwrist -61.5907
rhand -54.2793 3.82346
rfingers 7.12502
rthumb -26.6907 -24.3145
lclavicle -4.12478e-015 -1.00187e-013
lhumerus 0.649523 -68.3657 44.5649
lradius 109.053
lwrist 28.1217
lhand -56.388 30.5721
lfingers 7.12502
lthumb -28.707 58.3858
rfemur 129.473 209.304 -161.403
rtibia 84.0963
rfoot 172.937 -201.762
rtoes 31.4107
lfemur -42.9788 13.5763 -20.6503
ltibia 71.6515
lfoot -30.9023 13.1096
ltoes 6.53952
1632
root 3.26234 13.7576 -1.27752 -171.091 29.863 -176.416
lowerback 9.82776 2.29055 6.93166
upperback -5.74893 5.20742 5.32054
thorax -11.7651 2.40364 0.853843
lowerneck -14.0963 -9.14387 -3.4522
upperneck 8.4766 -11.8051 1.62111
head 5.11956 -5.77936 0.0319909
rclavicle -6.80837e-014 -6.67916e-014
rhumerus -17.8462 8.67665 -90.3076
rradius 57.9662
rwrist -63.3361
rhand -52.9987 -0.401087
rfingers 7.12502
rthumb -25.4646 -28.7199
lclavicle -6.80837e-014 -6.67916e-014
lhumerus 2.6805 -68.6703 42.85
lradius 108.863
lwrist 28.2916
lhand -56.3366 30.6013
lfingers 7.12502
lthumb -28.6579 58.4234
rfemur 128.6 208.501 -161.772
rtibia 84.9515
rfoot 173.965 -201.675
rtoes 33.5132
lfemur -42.2602 14.1487 -21.0439
ltibia 71.2189
lfoot -30.8375 12.6949
ltoes 6.25167
1633
root 3.26742 13.7784 -1.32024 -171.568 29.7178 -176.793
lowerback 9.91705 2.93118 6.98137
upperback -5.65784 5.96307 4.77182
thorax -11.6158 2.71391 0.0868861
lowerneck -14.1796 -8.97152 -3.1995
upperneck 9.05079 -11.6115 1.44557
head 5.28401 -5.68312 -0.0604382
rclavicle -3.5334e-014 -1.74931e-014
rhumerus -16.5212 11.2135 -90.8223
rradius 58.5818
rwrist -64.8146
rhand -51.3881 -4.11976
rfingers 7.12502
rthumb -23.9208 -32.6498
lclavicle -3.5334e-014 -1.74931e-014
lhumerus 4.58301 -68.9546 41.1419
lradius 108.756
lwrist 28.406
lhand -56.2659 30.4528
lfingers 7.12502
lthumb -28.5904 58.2862
rfemur 127.699 207.685 -162.033
rtibia 85.6048
rfoot 174.608 -201.167
rtoes 34.6566
lfemur -41.5436 14.7358 -21.4158
ltibia 70.7612
lfoot -30.7534 12.2944
ltoes 5.9029
